<svg width="16" height="16" viewBox="0 0 16 16" fill="none" xmlns="http://www.w3.org/2000/svg">
<path fill-rule="evenodd" clip-rule="evenodd" d="M12.5397 4.79649C12.7086 4.96943 12.7086 5.24982 12.5397 5.42276L6.89414 11.2037C6.72525 11.3767 6.45143 11.3767 6.28254 11.2037L3.45974 8.31325C3.29085 8.14031 3.29085 7.85992 3.45974 7.68698C3.62863 7.51404 3.90246 7.51404 4.07135 7.68698L6.58834 10.2643L11.9281 4.79649C12.097 4.62355 12.3708 4.62355 12.5397 4.79649Z" fill="white"/>
<path fill-rule="evenodd" clip-rule="evenodd" d="M12.7305 4.61017C13.0006 4.88672 13.0006 5.33253 12.7305 5.60908L7.08493 11.3901C6.81141 11.6701 6.36527 11.6701 6.09176 11.3901L3.26896 8.49957C2.99889 8.22302 2.99889 7.77721 3.26896 7.50067C3.54248 7.22059 3.98861 7.22059 4.26213 7.50067L6.58834 9.88266L11.7373 4.61017C12.0109 4.3301 12.457 4.3301 12.7305 4.61017ZM6.58834 10.2643L4.07135 7.68698C3.90246 7.51404 3.62863 7.51404 3.45974 7.68698C3.29085 7.85992 3.29085 8.14031 3.45974 8.31325L6.28254 11.2037C6.45143 11.3767 6.72525 11.3767 6.89414 11.2037L12.5397 5.42276C12.7086 5.24982 12.7086 4.96943 12.5397 4.79649C12.3708 4.62355 12.097 4.62355 11.9281 4.79649L6.58834 10.2643Z" fill="white"/>
</svg>
