<svg width="50" height="50" viewBox="0 0 50 50" fill="none" xmlns="http://www.w3.org/2000/svg">
<rect width="50" height="50" rx="25" fill="#5BCE89"/>
<path fill-rule="evenodd" clip-rule="evenodd" d="M32.9445 19.3939C33.2401 19.6965 33.2401 20.1872 32.9445 20.4899L23.0648 30.6066C22.7692 30.9092 22.29 30.9092 21.9944 30.6066L17.0545 25.5482C16.759 25.2456 16.759 24.7549 17.0545 24.4522C17.3501 24.1496 17.8293 24.1496 18.1249 24.4522L22.5296 28.9626L31.8742 19.3939C32.1698 19.0912 32.649 19.0912 32.9445 19.3939Z" fill="white"/>
<path fill-rule="evenodd" clip-rule="evenodd" d="M33.2784 19.0678C33.751 19.5518 33.751 20.332 33.2784 20.8159L23.3986 30.9326C22.92 31.4228 22.1392 31.4228 21.6606 30.9326L16.7207 25.8743C16.2481 25.3903 16.2481 24.6101 16.7207 24.1262C17.1993 23.6361 17.9801 23.6361 18.4587 24.1262L22.5296 28.2947L31.5404 19.0678C32.019 18.5777 32.7998 18.5777 33.2784 19.0678ZM22.5296 28.9626L18.1249 24.4522C17.8293 24.1496 17.3501 24.1496 17.0545 24.4522C16.759 24.7549 16.759 25.2456 17.0545 25.5482L21.9944 30.6066C22.29 30.9092 22.7692 30.9092 23.0648 30.6066L32.9445 20.4899C33.2401 20.1872 33.2401 19.6965 32.9445 19.3939C32.649 19.0912 32.1698 19.0912 31.8742 19.3939L22.5296 28.9626Z" fill="white"/>
</svg>
