<svg width="46" height="46" viewBox="0 0 46 46" fill="none" xmlns="http://www.w3.org/2000/svg">
<path d="M0 0V22.4745H6.92012V6.89469H14.6985V0H0Z" fill="white"/>
<path d="M14.6985 7.80329H7.80525V22.4745H14.6985V7.80329Z" fill="white"/>
<path d="M31.3283 22.4745V0H46L39.1067 5.74557H38.1948V12.1592H39.1067V5.74557L46 0V16.729H38.2216V22.4745H31.3283Z" fill="white"/>
<path d="M39.1067 22.4745V17.6643H46V22.4745H39.1067Z" fill="white"/>
<path d="M0 45.8844V23.4099H14.6985V45.8844H7.80525V29.1554H6.92012V45.8844H0Z" fill="white"/>
<path fill-rule="evenodd" clip-rule="evenodd" d="M15.6373 0V22.4745H30.3627V0H15.6373ZM23.4426 5.74557V16.729H22.5306V5.74557H23.4426Z" fill="white"/>
<path fill-rule="evenodd" clip-rule="evenodd" d="M31.2746 23.4366V45.8844H46V23.4366H31.2746ZM39.0799 29.1822V40.1656H38.1679V29.1822H39.0799Z" fill="white"/>
<path d="M15.6373 45.8844V23.4099H30.309L23.4157 29.1554H22.5038V35.5691H23.4157V29.1554L30.309 23.4099V40.1388H22.5306V45.8844H15.6373Z" fill="white"/>
<path d="M23.4157 45.8844V41.0742H30.309V45.8844H23.4157Z" fill="white"/>
</svg>
