<svg width="106" height="106" viewBox="0 0 106 106" fill="none" xmlns="http://www.w3.org/2000/svg">
<path d="M20 40V20H40" stroke="#CF0000"/>
<path d="M40 86L20 86L20 66" stroke="#CF0000"/>
<path d="M86 66L86 86L66 86" stroke="#CF0000"/>
<path d="M66 20L86 20L86 40" stroke="#CF0000"/>
<path d="M34 33.9899V52.5559H39.7166V39.6855H46.1423V33.9899H34Z" fill="#CF0000"/>
<path d="M46.1423 40.4361H40.4478V52.5559H46.1423V40.4361Z" fill="#CF0000"/>
<path d="M59.8799 52.5559V33.9899H72L66.3055 38.7363H65.5522V44.0345H66.3055V38.7363L72 33.9899V47.8095H65.5743V52.5559H59.8799Z" fill="#CF0000"/>
<path d="M66.3055 52.5559V48.5822H72V52.5559H66.3055Z" fill="#CF0000"/>
<path d="M34 71.8944V53.3285H46.1423V71.8944H40.4478V58.0749H39.7166V71.8944H34Z" fill="#CF0000"/>
<path fill-rule="evenodd" clip-rule="evenodd" d="M46.9178 33.9899V52.5559H59.0822V33.9899H46.9178ZM53.3656 38.7363V47.8095H52.6122V38.7363H53.3656Z" fill="#CF0000"/>
<path fill-rule="evenodd" clip-rule="evenodd" d="M59.8356 53.3506V71.8944H72V53.3506H59.8356ZM66.2834 58.0969V67.1702H65.53V58.0969H66.2834Z" fill="#CF0000"/>
<path d="M46.9178 71.8944V53.3285H59.0379L53.3434 58.0749H52.5901V63.3731H53.3434V58.0749L59.0379 53.3285V67.1481H52.6122V71.8944H46.9178Z" fill="#CF0000"/>
<path d="M53.3434 71.8944V67.9208H59.0379V71.8944H53.3434Z" fill="#CF0000"/>
</svg>
